<?xml version="1.0" encoding="UTF-8" standalone="no"?>
<!-- Created with Inkscape (http://www.inkscape.org/) -->

<svg
   xmlns:dc="http://purl.org/dc/elements/1.1/"
   xmlns:cc="http://creativecommons.org/ns#"
   xmlns:rdf="http://www.w3.org/1999/02/22-rdf-syntax-ns#"
   xmlns:svg="http://www.w3.org/2000/svg"
   xmlns="http://www.w3.org/2000/svg"
   xmlns:sodipodi="http://sodipodi.sourceforge.net/DTD/sodipodi-0.dtd"
   xmlns:inkscape="http://www.inkscape.org/namespaces/inkscape"
   width="295mm"
   height="118mm"
   viewBox="0 0 295 118"
   version="1.1"
   id="svg10407"
   sodipodi:docname="KeyCard_Red.svg"
   inkscape:export-filename="C:\Users\Tobi_\Desktop\KeyCard_Red.png"
   inkscape:export-xdpi="131.01176"
   inkscape:export-ydpi="131.01176"
   inkscape:version="0.92.4 (5da689c313, 2019-01-14)">
  <defs
     id="defs10401">
    <inkscape:path-effect
       effect="spiro"
       id="path-effect871"
       is_visible="true" />
    <inkscape:path-effect
       is_visible="true"
       id="path-effect863"
       effect="spiro" />
    <inkscape:path-effect
       effect="spiro"
       id="path-effect855"
       is_visible="true" />
    <inkscape:path-effect
       is_visible="true"
       id="path-effect839"
       effect="spiro" />
    <inkscape:path-effect
       effect="spiro"
       id="path-effect12813"
       is_visible="true" />
  </defs>
  <sodipodi:namedview
     id="base"
     pagecolor="#ffffff"
     bordercolor="#666666"
     borderopacity="1.0"
     inkscape:pageopacity="0.0"
     inkscape:pageshadow="2"
     inkscape:zoom="0.70710678"
     inkscape:cx="239.6357"
     inkscape:cy="580.84655"
     inkscape:document-units="mm"
     inkscape:current-layer="layer1"
     showgrid="true"
     inkscape:window-width="1920"
     inkscape:window-height="1017"
     inkscape:window-x="-8"
     inkscape:window-y="-8"
     inkscape:window-maximized="1">
    <inkscape:grid
       type="xygrid"
       id="grid10952" />
  </sodipodi:namedview>
  <metadata
     id="metadata10404">
    <rdf:RDF>
      <cc:Work
         rdf:about="">
        <dc:format>image/svg+xml</dc:format>
        <dc:type
           rdf:resource="http://purl.org/dc/dcmitype/StillImage" />
        <dc:title></dc:title>
      </cc:Work>
    </rdf:RDF>
  </metadata>
  <g
     inkscape:label="Ebene 1"
     inkscape:groupmode="layer"
     id="layer1"
     transform="translate(0,-179)">
    <rect
       style="opacity:1;fill:#fb3333;fill-opacity:0.99658706;stroke-width:0.26458332"
       id="rect10956"
       width="44.979168"
       height="79.375"
       x="10.501438"
       y="193.75909" />
    <path
       style="fill:none;stroke:#000000;stroke-width:0.26458332px;stroke-linecap:butt;stroke-linejoin:miter;stroke-opacity:1"
       d="m 10.583333,8.6041665 h 39.6875 V 82.6875 h -39.6875 z"
       id="path12811"
       inkscape:connector-curvature="0"
       inkscape:path-effect="#path-effect12813"
       inkscape:original-d="m 10.583333,8.6041665 c 0,0 39.6875,0 39.6875,0 0,0 0,74.0833335 0,74.0833335 0,0 -39.6875,0 -39.6875,0 0,0 0,-74.0833335 0,-74.0833335 z"
       transform="translate(2.563938,187.80076)" />
    <path
       style="opacity:1;fill:#ff0000;fill-opacity:0.99658706;stroke-width:0.26458332"
       d="M 10.583333,233.5 V 193.94479 H 32.940625 55.297917 V 233.5 273.05521 H 32.940625 10.583333 Z M 53.11602,233.4339 53.04896,196.1938 33.006772,196.126 12.964584,196.0582 v 37.30791 37.30792 h 20.109249 20.10925 z"
       id="path12841"
       inkscape:connector-curvature="0" />
    <rect
       y="201.6151"
       x="67.56205"
       height="79.375"
       width="45.150982"
       id="rect835"
       style="opacity:1;fill:#fb3333;fill-opacity:0.99658706;stroke-width:0.26508817"
       transform="matrix(0.9961947,-0.08715574,0,1,0,0)" />
    <path
       transform="matrix(1,-0.08748866,0,1,59.367459,190.46278)"
       inkscape:original-d="m 10.583333,8.6041665 c 0,0 39.6875,0 39.6875,0 0,0 0,74.0833335 0,74.0833335 0,0 -39.6875,0 -39.6875,0 0,0 0,-74.0833335 0,-74.0833335 z"
       inkscape:path-effect="#path-effect839"
       inkscape:connector-curvature="0"
       id="path837"
       d="m 10.583333,8.6041665 h 39.6875 V 82.6875 h -39.6875 z"
       style="fill:none;stroke:#000000;stroke-width:0.26458332px;stroke-linecap:butt;stroke-linejoin:miter;stroke-opacity:1" />
    <path
       inkscape:connector-curvature="0"
       id="path841"
       d="m 67.386854,235.46042 v -39.55521 l 22.357292,-1.95601 22.357294,-1.95601 v 39.55521 39.55521 l -22.357294,1.95601 -22.357292,1.95601 z m 42.532686,-3.78728 -0.0671,-37.23423 -20.042189,1.68565 -20.042187,1.68566 v 37.30791 37.30791 l 20.109249,-1.75933 20.109247,-1.75933 z"
       style="opacity:1;fill:#ff0000;fill-opacity:0.99658706;stroke-width:0.26458332" />
    <rect
       transform="matrix(0.98503426,-0.17235866,0,1,0,0)"
       style="opacity:1;fill:#fb3333;fill-opacity:0.99658706;stroke-width:0.26658568"
       id="rect851"
       width="45.662544"
       height="79.375"
       x="127.62261"
       y="217.66455" />
    <path
       style="fill:none;stroke:#000000;stroke-width:0.26458332px;stroke-linecap:butt;stroke-linejoin:miter;stroke-opacity:1"
       d="m 10.583333,8.6041665 h 39.6875 V 82.6875 h -39.6875 z"
       id="path853"
       inkscape:connector-curvature="0"
       inkscape:path-effect="#path-effect855"
       inkscape:original-d="m 10.583333,8.6041665 c 0,0 39.6875,0 39.6875,0 0,0 0,74.0833335 0,74.0833335 0,0 -39.6875,0 -39.6875,0 0,0 0,-74.0833335 0,-74.0833335 z"
       transform="matrix(1,-0.17497732,0,1,117.77515,191.09824)" />
    <path
       style="opacity:1;fill:#ff0000;fill-opacity:0.99658706;stroke-width:0.26458332"
       d="m 125.79454,235.39427 v -39.5552 l 22.3573,-3.91203 22.35729,-3.91201 v 39.5552 39.55521 l -22.35729,3.91202 -22.3573,3.91202 z m 42.53269,-7.5084 -0.0671,-37.22837 -20.04219,3.43912 -20.04219,3.43912 v 37.30791 37.30792 l 20.10925,-3.51867 20.10925,-3.51866 z"
       id="path857"
       inkscape:connector-curvature="0" />
    <rect
       y="208.44089"
       x="185.63347"
       height="79.375"
       width="45.150982"
       id="rect859"
       style="opacity:1;fill:#fb3333;fill-opacity:0.99658706;stroke-width:0.26508817"
       transform="matrix(0.9961947,-0.08715574,0,1,0,0)" />
    <path
       transform="matrix(1,-0.08748866,0,1,176.98959,186.99797)"
       inkscape:original-d="m 10.583333,8.6041665 c 0,0 39.6875,0 39.6875,0 0,0 0,74.0833335 0,74.0833335 0,0 -39.6875,0 -39.6875,0 0,0 0,-74.0833335 0,-74.0833335 z"
       inkscape:path-effect="#path-effect863"
       inkscape:connector-curvature="0"
       id="path861"
       d="m 10.583333,8.6041665 h 39.6875 V 82.6875 h -39.6875 z"
       style="fill:none;stroke:#000000;stroke-width:0.26458332px;stroke-linecap:butt;stroke-linejoin:miter;stroke-opacity:1" />
    <path
       inkscape:connector-curvature="0"
       id="path865"
       d="m 185.00898,231.9956 v -39.5552 l 22.3573,-1.95602 22.35729,-1.956 v 39.5552 39.55521 l -22.35729,1.95601 -22.3573,1.95601 z m 42.53269,-3.78727 -0.0671,-37.23424 -20.04219,1.68566 -20.04219,1.68565 v 37.30791 37.30792 l 20.10925,-1.75934 20.10925,-1.75933 z"
       style="opacity:1;fill:#ff0000;fill-opacity:0.99658706;stroke-width:0.26458332" />
    <rect
       style="opacity:1;fill:#fb3333;fill-opacity:0.99658706;stroke-width:0.26458332"
       id="rect867"
       width="44.979168"
       height="79.375"
       x="237.84373"
       y="193.8252" />
    <path
       style="fill:none;stroke:#000000;stroke-width:0.26458332px;stroke-linecap:butt;stroke-linejoin:miter;stroke-opacity:1"
       d="m 10.583333,8.6041665 h 39.6875 V 82.6875 h -39.6875 z"
       id="path869"
       inkscape:connector-curvature="0"
       inkscape:path-effect="#path-effect871"
       inkscape:original-d="m 10.583333,8.6041665 c 0,0 39.6875,0 39.6875,0 0,0 0,74.0833335 0,74.0833335 0,0 -39.6875,0 -39.6875,0 0,0 0,-74.0833335 0,-74.0833335 z"
       transform="translate(229.90625,187.86687)" />
    <path
       style="opacity:1;fill:#ff0000;fill-opacity:0.99658706;stroke-width:0.26458332"
       d="m 237.92564,233.5661 v -39.5552 l 22.3573,-1e-5 22.35729,1e-5 v 39.5552 39.55521 h -22.35729 -22.3573 z m 42.53269,-0.0661 -0.0671,-37.24011 -20.04219,-0.0678 -20.04219,-0.0678 v 37.30791 37.30792 l 20.10925,-10e-6 h 20.10925 z"
       id="path873"
       inkscape:connector-curvature="0" />
  </g>
</svg>
